<?xml version="1.0" encoding="UTF-8"?>
<svg id="uuid-190e5f72-662f-4dcb-ba7b-0c9bffd690e5" data-name="图层 1" xmlns="http://www.w3.org/2000/svg" viewBox="0 0 26 23.79">
  <defs>
    <style>
      .uuid-709338c3-8a25-4201-a773-22ba9753fbf0 {
        fill: #01579b;
      }

      .uuid-1675d541-4543-4ff7-8e5f-801bd738df48 {
        fill: #29b6f6;
      }

      .uuid-409d74f1-bfa6-464e-b84d-6e4984224f2f {
        fill: #54c5f8;
      }
    </style>
  </defs>
  <path class="uuid-409d74f1-bfa6-464e-b84d-6e4984224f2f" d="M17.47,13.29c1.21-.25,2.17-.56,2.87-.94,1.1-.59,1.95-1.37,2.58-2.33.63-.96.94-2.1.94-3.42,0-1.52-.41-2.8-1.23-3.86-.82-1.06-1.89-1.78-3.23-2.17-1.34-.39-3.26-.58-5.79-.58H0v13.31h17.53s-.04-.01-.06-.02h0ZM15.14,8.57c-.34.4-.78.65-1.32.75-1.07.22-1.79.32-2.16.32h-3.44v-4.84h3.59c1.49,0,2.51.2,3.05.62.54.41.81,1,.81,1.77,0,.52-.17.98-.51,1.38Z"/>
  <polygon class="uuid-1675d541-4543-4ff7-8e5f-801bd738df48" points="0 13.31 0 23.79 8.2 23.79 8.2 14.14 8.21 14.14 8.21 13.31 0 13.31"/>
  <path class="uuid-709338c3-8a25-4201-a773-22ba9753fbf0" d="M10.93,14.69c.43.28.93.89,1.48,1.83l4.36,7.27h9.23l-3.96-6.89c-.19-.35-.57-.84-1.14-1.48-.57-.64-1.01-1.06-1.31-1.25-.44-.29-1.13-.57-2.07-.86h-9.32v.83h.72c.74,0,1.41.19,2,.55h0Z"/>
</svg>